<?xml version="1.0" standalone="yes"?>
<svg xmlns="http://www.w3.org/2000/svg" width="844" height="1244">
<path style="fill:#010101; stroke:none;" d="M0 0L0 1244L844 1244L844 0L0 0z"/>
<path style="fill:#1007fc; stroke:none;" d="M172 1215L172 744L172 635C172 623.898 167.758 601.89 173.028 592.089C176.167 586.25 184.724 581.762 190 578C204.118 567.933 218.744 558.56 234 550.309C313.977 507.055 407.562 492.553 497 506.424C527.356 511.132 557.491 519.398 586 530.8C592.66 533.464 609.488 544.664 615.385 538.836C632.954 521.475 645.331 496.834 656.247 475C715.861 355.756 686.163 202.598 589 112.089C495.778 25.252 355.314 -2.03784 237 46.8611C208.59 58.6031 182.345 73.8832 158 92.6512C138.914 107.365 122.276 124.498 106.921 143C71.1631 186.085 48.5972 239.807 40.4275 295C30.7562 360.338 37 430.023 37 496L37 894L37 1105L37 1160C37 1171.44 36.1612 1183.61 41.9051 1194C51.9324 1212.14 71.3686 1215 90 1215L172 1215z"/>
<path style="fill:#0b4fff; stroke:none;" d="M414 501L414 502L446 502L414 501M397 502L397 503L404 503L397 502z"/>
<path style="fill:#0782ff; stroke:none;" d="M378 505L378 1214C392.46 1216.68 408.318 1215 423 1215C471.847 1215 519.532 1207.12 566 1192C562.602 1177.73 565 1160.65 565 1146L565 1054L565 762L565 601C565 576.594 560.351 546.729 566 523C504.461 508.892 441.713 493.172 378 505z"/>
<path style="fill:#0b4fff; stroke:none;" d="M456 502L456 503L463 503L456 502M386 503L386 504L391 504L386 503M469 503L469 504L475 504L469 503M172 1215L381 1215L381 1214L378 1214L378 677L378 547L378 517C378 512.606 376.963 507.617 381 505C370.148 501.108 349.141 508.838 338 511.211C294.719 520.428 250.108 537.81 213 562C203.201 568.388 193.395 574.639 184 581.63C180.283 584.396 174.386 587.593 172.603 592.089C170.724 596.831 172 603.964 172 609L172 646L172 775L172 1215M479 504L479 505L483 505L479 504M487 505L487 506L491 506L487 505M494 506L494 507L498 507L494 506M501 507L501 508L504 508L501 507M507.667 508.333L508.333 508.667L507.667 508.333M512.667 509.333L513.333 509.667L512.667 509.333M517.667 510.333L518.333 510.667L517.667 510.333M522.667 511.333L523.333 511.667L522.667 511.333M527 512L528 513L527 512M531 513L532 514L531 513M535 514L536 515L535 514M539 515L540 516L539 515M543 516L544 517L543 516M546 517L547 518L546 517M550 518L551 519L550 518M553 519L554 520L553 519M556 520L557 521L556 520M560 521L561 522L560 521M563 522L564 523L563 522M566 523L567 524L566 523z"/>
<path style="fill:#03b3ff; stroke:none;" d="M565 524L565 986L565 1127C565 1146.72 560.421 1173.12 566 1192C598.184 1179.36 628.787 1166.12 658 1147.31C729.189 1101.46 783.816 1031.96 808.974 951C852.668 810.399 788.968 660.168 672 576.579C649.368 560.405 625.453 547.703 600 536.719C588.931 531.943 577.009 525.773 565 524z"/>
<path style="fill:#0782ff; stroke:none;" d="M568 524L569 525L568 524z"/>
<path style="fill:#0b4fff; stroke:none;" d="M569 524L570 525L569 524z"/>
<path style="fill:#0782ff; stroke:none;" d="M571 525L572 526L571 525z"/>
<path style="fill:#0b4fff; stroke:none;" d="M574 526L575 527L574 526M577 527L578 528L577 527z"/>
<path style="fill:#0782ff; stroke:none;" d="M579 528L580 529L579 528z"/>
<path style="fill:#0b4fff; stroke:none;" d="M580 528L581 529L580 528M582 529L583 530L582 529M585 530L586 531L585 530z"/>
<path style="fill:#0782ff; stroke:none;" d="M587 531L588 532L587 531z"/>
<path style="fill:#0b4fff; stroke:none;" d="M590 532L591 533L590 532z"/>
<path style="fill:#0782ff; stroke:none;" d="M592 533L593 534L592 533M594 534L595 535L594 534z"/>
<path style="fill:#0b4fff; stroke:none;" d="M595 534L596 535L595 534M597 535L598 536L597 535z"/>
<path style="fill:#0782ff; stroke:none;" d="M599 536L600 537L599 536M601 537L602 538L601 537z"/>
<path style="fill:#0b4fff; stroke:none;" d="M604 538L605 539L604 538M606 539L607 540L606 539M608 540L609 541L608 540z"/>
<path style="fill:#0782ff; stroke:none;" d="M610 541L611 542L610 541M568 1190L569 1191L568 1190z"/>
</svg>
